<svg xmlns="http://www.w3.org/2000/svg" width="760" height="172" viewBox="0 0 760 172" role="img" aria-label="近一年 633 次贡献，当前连续 2 天，最长 9 天">
  <style>
    .beam { animation: sweep 14.0s linear infinite; }
    @keyframes sweep {
      0%   { transform: translateX(-90px); opacity: 0; }
      6%   { opacity: 1; }
      92%  { opacity: 1; }
      100% { transform: translateX(687px); opacity: 0; }
    }
    .g233 { animation: gl233 14.0s linear infinite; }
    @keyframes gl233 {
      0%, 58.71%   { fill: #92400E; }
      61.71%  { fill: #F59E0B; }
      64.71%, 100% { fill: #92400E; }
    }
    .g234 { animation: gl234 14.0s linear infinite; }
    @keyframes gl234 {
      0%, 58.71%   { fill: #92400E; }
      61.71%  { fill: #F59E0B; }
      64.71%, 100% { fill: #92400E; }
    }
    .g235 { animation: gl235 14.0s linear infinite; }
    @keyframes gl235 {
      0%, 58.71%   { fill: #92400E; }
      61.71%  { fill: #F59E0B; }
      64.71%, 100% { fill: #92400E; }
    }
    .g236 { animation: gl236 14.0s linear infinite; }
    @keyframes gl236 {
      0%, 58.71%   { fill: #FEF3C7; }
      61.71%  { fill: #F59E0B; }
      64.71%, 100% { fill: #FEF3C7; }
    }
    .g237 { animation: gl237 14.0s linear infinite; }
    @keyframes gl237 {
      0%, 58.71%   { fill: #92400E; }
      61.71%  { fill: #F59E0B; }
      64.71%, 100% { fill: #92400E; }
    }
    .g238 { animation: gl238 14.0s linear infinite; }
    @keyframes gl238 {
      0%, 60.38%   { fill: #92400E; }
      63.38%  { fill: #F59E0B; }
      66.38%, 100% { fill: #92400E; }
    }
    .g239 { animation: gl239 14.0s linear infinite; }
    @keyframes gl239 {
      0%, 60.38%   { fill: #92400E; }
      63.38%  { fill: #F59E0B; }
      66.38%, 100% { fill: #92400E; }
    }
    .g240 { animation: gl240 14.0s linear infinite; }
    @keyframes gl240 {
      0%, 60.38%   { fill: #F59E0B; }
      63.38%  { fill: #F59E0B; }
      66.38%, 100% { fill: #F59E0B; }
    }
    .g241 { animation: gl241 14.0s linear infinite; }
    @keyframes gl241 {
      0%, 60.38%   { fill: #92400E; }
      63.38%  { fill: #F59E0B; }
      66.38%, 100% { fill: #92400E; }
    }
    .g243 { animation: gl243 14.0s linear infinite; }
    @keyframes gl243 {
      0%, 60.38%   { fill: #92400E; }
      63.38%  { fill: #F59E0B; }
      66.38%, 100% { fill: #92400E; }
    }
    .g244 { animation: gl244 14.0s linear infinite; }
    @keyframes gl244 {
      0%, 60.38%   { fill: #FEF3C7; }
      63.38%  { fill: #F59E0B; }
      66.38%, 100% { fill: #FEF3C7; }
    }
    .g245 { animation: gl245 14.0s linear infinite; }
    @keyframes gl245 {
      0%, 62.06%   { fill: #92400E; }
      65.06%  { fill: #F59E0B; }
      68.06%, 100% { fill: #92400E; }
    }
    .g246 { animation: gl246 14.0s linear infinite; }
    @keyframes gl246 {
      0%, 62.06%   { fill: #92400E; }
      65.06%  { fill: #F59E0B; }
      68.06%, 100% { fill: #92400E; }
    }
    .g247 { animation: gl247 14.0s linear infinite; }
    @keyframes gl247 {
      0%, 62.06%   { fill: #92400E; }
      65.06%  { fill: #F59E0B; }
      68.06%, 100% { fill: #92400E; }
    }
    .g248 { animation: gl248 14.0s linear infinite; }
    @keyframes gl248 {
      0%, 62.06%   { fill: #92400E; }
      65.06%  { fill: #F59E0B; }
      68.06%, 100% { fill: #92400E; }
    }
    .g250 { animation: gl250 14.0s linear infinite; }
    @keyframes gl250 {
      0%, 62.06%   { fill: #92400E; }
      65.06%  { fill: #F59E0B; }
      68.06%, 100% { fill: #92400E; }
    }
    .g251 { animation: gl251 14.0s linear infinite; }
    @keyframes gl251 {
      0%, 62.06%   { fill: #92400E; }
      65.06%  { fill: #F59E0B; }
      68.06%, 100% { fill: #92400E; }
    }
    .g252 { animation: gl252 14.0s linear infinite; }
    @keyframes gl252 {
      0%, 63.73%   { fill: #92400E; }
      66.73%  { fill: #F59E0B; }
      69.73%, 100% { fill: #92400E; }
    }
    .g253 { animation: gl253 14.0s linear infinite; }
    @keyframes gl253 {
      0%, 63.73%   { fill: #92400E; }
      66.73%  { fill: #F59E0B; }
      69.73%, 100% { fill: #92400E; }
    }
    .g254 { animation: gl254 14.0s linear infinite; }
    @keyframes gl254 {
      0%, 63.73%   { fill: #92400E; }
      66.73%  { fill: #F59E0B; }
      69.73%, 100% { fill: #92400E; }
    }
    .g255 { animation: gl255 14.0s linear infinite; }
    @keyframes gl255 {
      0%, 63.73%   { fill: #FDE68A; }
      66.73%  { fill: #F59E0B; }
      69.73%, 100% { fill: #FDE68A; }
    }
    .g256 { animation: gl256 14.0s linear infinite; }
    @keyframes gl256 {
      0%, 63.73%   { fill: #F59E0B; }
      66.73%  { fill: #F59E0B; }
      69.73%, 100% { fill: #F59E0B; }
    }
    .g261 { animation: gl261 14.0s linear infinite; }
    @keyframes gl261 {
      0%, 65.40%   { fill: #FEF3C7; }
      68.40%  { fill: #F59E0B; }
      71.40%, 100% { fill: #FEF3C7; }
    }
    .g262 { animation: gl262 14.0s linear infinite; }
    @keyframes gl262 {
      0%, 65.40%   { fill: #92400E; }
      68.40%  { fill: #F59E0B; }
      71.40%, 100% { fill: #92400E; }
    }
    .g301 { animation: gl301 14.0s linear infinite; }
    @keyframes gl301 {
      0%, 75.44%   { fill: #FEF3C7; }
      78.44%  { fill: #F59E0B; }
      81.44%, 100% { fill: #FEF3C7; }
    }
    .g357 { animation: gl357 14.0s linear infinite; }
    @keyframes gl357 {
      0%, 88.83%   { fill: #F59E0B; }
      91.83%  { fill: #F59E0B; }
      94.83%, 100% { fill: #F59E0B; }
    }
    .g358 { animation: gl358 14.0s linear infinite; }
    @keyframes gl358 {
      0%, 88.83%   { fill: #92400E; }
      91.83%  { fill: #F59E0B; }
      94.83%, 100% { fill: #92400E; }
    }
    .g359 { animation: gl359 14.0s linear infinite; }
    @keyframes gl359 {
      0%, 88.83%   { fill: #FEF3C7; }
      91.83%  { fill: #F59E0B; }
      94.83%, 100% { fill: #FEF3C7; }
    }
    .g364 { animation: gl364 14.0s linear infinite; }
    @keyframes gl364 {
      0%, 90.50%   { fill: #FDE68A; }
      93.50%  { fill: #F59E0B; }
      96.50%, 100% { fill: #FDE68A; }
    }
    .g365 { animation: gl365 14.0s linear infinite; }
    @keyframes gl365 {
      0%, 90.50%   { fill: #FEF3C7; }
      93.50%  { fill: #F59E0B; }
      96.50%, 100% { fill: #FEF3C7; }
    }
    .motion { display: inline; }
    @media (prefers-reduced-motion: reduce) {
      .beam { display: none; }
      .motion { display: none; }
    }
  </style>
  <defs>
    <linearGradient id="abg" x1="0" y1="0" x2="1" y2="1">
      <stop offset="0" stop-color="#FFFBEB"/>
      <stop offset="1" stop-color="#FEF3C7"/>
    </linearGradient>
    <linearGradient id="aborder" x1="0" y1="0" x2="1" y2="0">
      <stop offset="0" stop-color="#92400E"/>
      <stop offset="0.5" stop-color="#D97706"/>
      <stop offset="1" stop-color="#F59E0B"/>
    </linearGradient>
    <linearGradient id="anum" x1="0" y1="0" x2="1" y2="0">
      <stop offset="0" stop-color="#D97706"/>
      <stop offset="1" stop-color="#F59E0B"/>
    </linearGradient>
    <linearGradient id="beamg" x1="0" y1="0" x2="1" y2="0">
      <stop offset="0" stop-color="#F59E0B" stop-opacity="0"/>
      <stop offset="0.5" stop-color="#F59E0B" stop-opacity="0.40"/>
      <stop offset="1" stop-color="#F59E0B" stop-opacity="0"/>
    </linearGradient>
    <filter id="ashadow" x="-5%" y="-10%" width="110%" height="125%">
      <feDropShadow dx="0" dy="3" stdDeviation="7" flood-color="#D97706" flood-opacity="0.18"/>
    </filter>
    <filter id="beamblur" x="-30%" y="-10%" width="160%" height="120%">
      <feGaussianBlur stdDeviation="6"/>
    </filter>
    <clipPath id="gridclip">
      <rect x="36" y="52" width="687" height="91" rx="3"/>
    </clipPath>
  </defs>

  <rect x="1" y="1" width="758" height="170" rx="14" fill="url(#abg)" filter="url(#ashadow)"/>
  <rect x="1" y="1" width="758" height="170" rx="14" fill="none" stroke="url(#aborder)" stroke-width="1.5"/>


  <!-- Header: yearly stats. The section title is carried by the README
       heading, so the card does not repeat it. -->
  <text x="28" y="31" font-family="'Segoe UI',-apple-system,sans-serif" font-size="12">
    <tspan fill="url(#anum)" font-size="16" font-weight="700">633</tspan>
    <tspan fill="#6B7280"> 次贡献 · 连续 </tspan>
    <tspan fill="#B45309" font-weight="600">2</tspan>
    <tspan fill="#6B7280"> 天 · 最长 </tspan>
    <tspan fill="#B45309" font-weight="600">9</tspan>
    <tspan fill="#6B7280"> 天</tspan>
  </text>

  <!-- Month labels -->
  <text x="36" y="47" fill="#9CA3AF" font-family="'Segoe UI',sans-serif" font-size="9">10月</text>
  <text x="88" y="47" fill="#9CA3AF" font-family="'Segoe UI',sans-serif" font-size="9">11月</text>
  <text x="153" y="47" fill="#9CA3AF" font-family="'Segoe UI',sans-serif" font-size="9">12月</text>
  <text x="205" y="47" fill="#9CA3AF" font-family="'Segoe UI',sans-serif" font-size="9">1月</text>
  <text x="270" y="47" fill="#9CA3AF" font-family="'Segoe UI',sans-serif" font-size="9">2月</text>
  <text x="322" y="47" fill="#9CA3AF" font-family="'Segoe UI',sans-serif" font-size="9">3月</text>
  <text x="374" y="47" fill="#9CA3AF" font-family="'Segoe UI',sans-serif" font-size="9">4月</text>
  <text x="426" y="47" fill="#9CA3AF" font-family="'Segoe UI',sans-serif" font-size="9">5月</text>
  <text x="491" y="47" fill="#9CA3AF" font-family="'Segoe UI',sans-serif" font-size="9">6月</text>
  <text x="543" y="47" fill="#9CA3AF" font-family="'Segoe UI',sans-serif" font-size="9">7月</text>
  <text x="595" y="47" fill="#9CA3AF" font-family="'Segoe UI',sans-serif" font-size="9">8月</text>
  <text x="660" y="47" fill="#9CA3AF" font-family="'Segoe UI',sans-serif" font-size="9">9月</text>

  <!-- Weekday labels -->
  <text x="14" y="74" fill="#9CA3AF" font-family="'Segoe UI',sans-serif" font-size="8">一</text>
  <text x="14" y="100" fill="#9CA3AF" font-family="'Segoe UI',sans-serif" font-size="8">三</text>
  <text x="14" y="126" fill="#9CA3AF" font-family="'Segoe UI',sans-serif" font-size="8">五</text>

  <!-- Heatmap grid. Cells with contributions get a per-cell glow keyframe
       timed to the moment the beam reaches them; empty days stay flat. -->
  <rect x="36" y="52" width="11" height="11" rx="2.5" fill="#EBEDF0"/>
  <rect x="36" y="65" width="11" height="11" rx="2.5" fill="#EBEDF0"/>
  <rect x="36" y="78" width="11" height="11" rx="2.5" fill="#EBEDF0"/>
  <rect x="36" y="91" width="11" height="11" rx="2.5" fill="#EBEDF0"/>
  <rect x="36" y="104" width="11" height="11" rx="2.5" fill="#EBEDF0"/>
  <rect x="36" y="117" width="11" height="11" rx="2.5" fill="#EBEDF0"/>
  <rect x="36" y="130" width="11" height="11" rx="2.5" fill="#EBEDF0"/>
  <rect x="49" y="52" width="11" height="11" rx="2.5" fill="#EBEDF0"/>
  <rect x="49" y="65" width="11" height="11" rx="2.5" fill="#EBEDF0"/>
  <rect x="49" y="78" width="11" height="11" rx="2.5" fill="#EBEDF0"/>
  <rect x="49" y="91" width="11" height="11" rx="2.5" fill="#EBEDF0"/>
  <rect x="49" y="104" width="11" height="11" rx="2.5" fill="#EBEDF0"/>
  <rect x="49" y="117" width="11" height="11" rx="2.5" fill="#EBEDF0"/>
  <rect x="49" y="130" width="11" height="11" rx="2.5" fill="#EBEDF0"/>
  <rect x="62" y="52" width="11" height="11" rx="2.5" fill="#EBEDF0"/>
  <rect x="62" y="65" width="11" height="11" rx="2.5" fill="#EBEDF0"/>
  <rect x="62" y="78" width="11" height="11" rx="2.5" fill="#EBEDF0"/>
  <rect x="62" y="91" width="11" height="11" rx="2.5" fill="#EBEDF0"/>
  <rect x="62" y="104" width="11" height="11" rx="2.5" fill="#EBEDF0"/>
  <rect x="62" y="117" width="11" height="11" rx="2.5" fill="#EBEDF0"/>
  <rect x="62" y="130" width="11" height="11" rx="2.5" fill="#EBEDF0"/>
  <rect x="75" y="52" width="11" height="11" rx="2.5" fill="#EBEDF0"/>
  <rect x="75" y="65" width="11" height="11" rx="2.5" fill="#EBEDF0"/>
  <rect x="75" y="78" width="11" height="11" rx="2.5" fill="#EBEDF0"/>
  <rect x="75" y="91" width="11" height="11" rx="2.5" fill="#EBEDF0"/>
  <rect x="75" y="104" width="11" height="11" rx="2.5" fill="#EBEDF0"/>
  <rect x="75" y="117" width="11" height="11" rx="2.5" fill="#EBEDF0"/>
  <rect x="75" y="130" width="11" height="11" rx="2.5" fill="#EBEDF0"/>
  <rect x="88" y="52" width="11" height="11" rx="2.5" fill="#EBEDF0"/>
  <rect x="88" y="65" width="11" height="11" rx="2.5" fill="#EBEDF0"/>
  <rect x="88" y="78" width="11" height="11" rx="2.5" fill="#EBEDF0"/>
  <rect x="88" y="91" width="11" height="11" rx="2.5" fill="#EBEDF0"/>
  <rect x="88" y="104" width="11" height="11" rx="2.5" fill="#EBEDF0"/>
  <rect x="88" y="117" width="11" height="11" rx="2.5" fill="#EBEDF0"/>
  <rect x="88" y="130" width="11" height="11" rx="2.5" fill="#EBEDF0"/>
  <rect x="101" y="52" width="11" height="11" rx="2.5" fill="#EBEDF0"/>
  <rect x="101" y="65" width="11" height="11" rx="2.5" fill="#EBEDF0"/>
  <rect x="101" y="78" width="11" height="11" rx="2.5" fill="#EBEDF0"/>
  <rect x="101" y="91" width="11" height="11" rx="2.5" fill="#EBEDF0"/>
  <rect x="101" y="104" width="11" height="11" rx="2.5" fill="#EBEDF0"/>
  <rect x="101" y="117" width="11" height="11" rx="2.5" fill="#EBEDF0"/>
  <rect x="101" y="130" width="11" height="11" rx="2.5" fill="#EBEDF0"/>
  <rect x="114" y="52" width="11" height="11" rx="2.5" fill="#EBEDF0"/>
  <rect x="114" y="65" width="11" height="11" rx="2.5" fill="#EBEDF0"/>
  <rect x="114" y="78" width="11" height="11" rx="2.5" fill="#EBEDF0"/>
  <rect x="114" y="91" width="11" height="11" rx="2.5" fill="#EBEDF0"/>
  <rect x="114" y="104" width="11" height="11" rx="2.5" fill="#EBEDF0"/>
  <rect x="114" y="117" width="11" height="11" rx="2.5" fill="#EBEDF0"/>
  <rect x="114" y="130" width="11" height="11" rx="2.5" fill="#EBEDF0"/>
  <rect x="127" y="52" width="11" height="11" rx="2.5" fill="#EBEDF0"/>
  <rect x="127" y="65" width="11" height="11" rx="2.5" fill="#EBEDF0"/>
  <rect x="127" y="78" width="11" height="11" rx="2.5" fill="#EBEDF0"/>
  <rect x="127" y="91" width="11" height="11" rx="2.5" fill="#EBEDF0"/>
  <rect x="127" y="104" width="11" height="11" rx="2.5" fill="#EBEDF0"/>
  <rect x="127" y="117" width="11" height="11" rx="2.5" fill="#EBEDF0"/>
  <rect x="127" y="130" width="11" height="11" rx="2.5" fill="#EBEDF0"/>
  <rect x="140" y="52" width="11" height="11" rx="2.5" fill="#EBEDF0"/>
  <rect x="140" y="65" width="11" height="11" rx="2.5" fill="#EBEDF0"/>
  <rect x="140" y="78" width="11" height="11" rx="2.5" fill="#EBEDF0"/>
  <rect x="140" y="91" width="11" height="11" rx="2.5" fill="#EBEDF0"/>
  <rect x="140" y="104" width="11" height="11" rx="2.5" fill="#EBEDF0"/>
  <rect x="140" y="117" width="11" height="11" rx="2.5" fill="#EBEDF0"/>
  <rect x="140" y="130" width="11" height="11" rx="2.5" fill="#EBEDF0"/>
  <rect x="153" y="52" width="11" height="11" rx="2.5" fill="#EBEDF0"/>
  <rect x="153" y="65" width="11" height="11" rx="2.5" fill="#EBEDF0"/>
  <rect x="153" y="78" width="11" height="11" rx="2.5" fill="#EBEDF0"/>
  <rect x="153" y="91" width="11" height="11" rx="2.5" fill="#EBEDF0"/>
  <rect x="153" y="104" width="11" height="11" rx="2.5" fill="#EBEDF0"/>
  <rect x="153" y="117" width="11" height="11" rx="2.5" fill="#EBEDF0"/>
  <rect x="153" y="130" width="11" height="11" rx="2.5" fill="#EBEDF0"/>
  <rect x="166" y="52" width="11" height="11" rx="2.5" fill="#EBEDF0"/>
  <rect x="166" y="65" width="11" height="11" rx="2.5" fill="#EBEDF0"/>
  <rect x="166" y="78" width="11" height="11" rx="2.5" fill="#EBEDF0"/>
  <rect x="166" y="91" width="11" height="11" rx="2.5" fill="#EBEDF0"/>
  <rect x="166" y="104" width="11" height="11" rx="2.5" fill="#EBEDF0"/>
  <rect x="166" y="117" width="11" height="11" rx="2.5" fill="#EBEDF0"/>
  <rect x="166" y="130" width="11" height="11" rx="2.5" fill="#EBEDF0"/>
  <rect x="179" y="52" width="11" height="11" rx="2.5" fill="#EBEDF0"/>
  <rect x="179" y="65" width="11" height="11" rx="2.5" fill="#EBEDF0"/>
  <rect x="179" y="78" width="11" height="11" rx="2.5" fill="#EBEDF0"/>
  <rect x="179" y="91" width="11" height="11" rx="2.5" fill="#EBEDF0"/>
  <rect x="179" y="104" width="11" height="11" rx="2.5" fill="#EBEDF0"/>
  <rect x="179" y="117" width="11" height="11" rx="2.5" fill="#EBEDF0"/>
  <rect x="179" y="130" width="11" height="11" rx="2.5" fill="#EBEDF0"/>
  <rect x="192" y="52" width="11" height="11" rx="2.5" fill="#EBEDF0"/>
  <rect x="192" y="65" width="11" height="11" rx="2.5" fill="#EBEDF0"/>
  <rect x="192" y="78" width="11" height="11" rx="2.5" fill="#EBEDF0"/>
  <rect x="192" y="91" width="11" height="11" rx="2.5" fill="#EBEDF0"/>
  <rect x="192" y="104" width="11" height="11" rx="2.5" fill="#EBEDF0"/>
  <rect x="192" y="117" width="11" height="11" rx="2.5" fill="#EBEDF0"/>
  <rect x="192" y="130" width="11" height="11" rx="2.5" fill="#EBEDF0"/>
  <rect x="205" y="52" width="11" height="11" rx="2.5" fill="#EBEDF0"/>
  <rect x="205" y="65" width="11" height="11" rx="2.5" fill="#EBEDF0"/>
  <rect x="205" y="78" width="11" height="11" rx="2.5" fill="#EBEDF0"/>
  <rect x="205" y="91" width="11" height="11" rx="2.5" fill="#EBEDF0"/>
  <rect x="205" y="104" width="11" height="11" rx="2.5" fill="#EBEDF0"/>
  <rect x="205" y="117" width="11" height="11" rx="2.5" fill="#EBEDF0"/>
  <rect x="205" y="130" width="11" height="11" rx="2.5" fill="#EBEDF0"/>
  <rect x="218" y="52" width="11" height="11" rx="2.5" fill="#EBEDF0"/>
  <rect x="218" y="65" width="11" height="11" rx="2.5" fill="#EBEDF0"/>
  <rect x="218" y="78" width="11" height="11" rx="2.5" fill="#EBEDF0"/>
  <rect x="218" y="91" width="11" height="11" rx="2.5" fill="#EBEDF0"/>
  <rect x="218" y="104" width="11" height="11" rx="2.5" fill="#EBEDF0"/>
  <rect x="218" y="117" width="11" height="11" rx="2.5" fill="#EBEDF0"/>
  <rect x="218" y="130" width="11" height="11" rx="2.5" fill="#EBEDF0"/>
  <rect x="231" y="52" width="11" height="11" rx="2.5" fill="#EBEDF0"/>
  <rect x="231" y="65" width="11" height="11" rx="2.5" fill="#EBEDF0"/>
  <rect x="231" y="78" width="11" height="11" rx="2.5" fill="#EBEDF0"/>
  <rect x="231" y="91" width="11" height="11" rx="2.5" fill="#EBEDF0"/>
  <rect x="231" y="104" width="11" height="11" rx="2.5" fill="#EBEDF0"/>
  <rect x="231" y="117" width="11" height="11" rx="2.5" fill="#EBEDF0"/>
  <rect x="231" y="130" width="11" height="11" rx="2.5" fill="#EBEDF0"/>
  <rect x="244" y="52" width="11" height="11" rx="2.5" fill="#EBEDF0"/>
  <rect x="244" y="65" width="11" height="11" rx="2.5" fill="#EBEDF0"/>
  <rect x="244" y="78" width="11" height="11" rx="2.5" fill="#EBEDF0"/>
  <rect x="244" y="91" width="11" height="11" rx="2.5" fill="#EBEDF0"/>
  <rect x="244" y="104" width="11" height="11" rx="2.5" fill="#EBEDF0"/>
  <rect x="244" y="117" width="11" height="11" rx="2.5" fill="#EBEDF0"/>
  <rect x="244" y="130" width="11" height="11" rx="2.5" fill="#EBEDF0"/>
  <rect x="257" y="52" width="11" height="11" rx="2.5" fill="#EBEDF0"/>
  <rect x="257" y="65" width="11" height="11" rx="2.5" fill="#EBEDF0"/>
  <rect x="257" y="78" width="11" height="11" rx="2.5" fill="#EBEDF0"/>
  <rect x="257" y="91" width="11" height="11" rx="2.5" fill="#EBEDF0"/>
  <rect x="257" y="104" width="11" height="11" rx="2.5" fill="#EBEDF0"/>
  <rect x="257" y="117" width="11" height="11" rx="2.5" fill="#EBEDF0"/>
  <rect x="257" y="130" width="11" height="11" rx="2.5" fill="#EBEDF0"/>
  <rect x="270" y="52" width="11" height="11" rx="2.5" fill="#EBEDF0"/>
  <rect x="270" y="65" width="11" height="11" rx="2.5" fill="#EBEDF0"/>
  <rect x="270" y="78" width="11" height="11" rx="2.5" fill="#EBEDF0"/>
  <rect x="270" y="91" width="11" height="11" rx="2.5" fill="#EBEDF0"/>
  <rect x="270" y="104" width="11" height="11" rx="2.5" fill="#EBEDF0"/>
  <rect x="270" y="117" width="11" height="11" rx="2.5" fill="#EBEDF0"/>
  <rect x="270" y="130" width="11" height="11" rx="2.5" fill="#EBEDF0"/>
  <rect x="283" y="52" width="11" height="11" rx="2.5" fill="#EBEDF0"/>
  <rect x="283" y="65" width="11" height="11" rx="2.5" fill="#EBEDF0"/>
  <rect x="283" y="78" width="11" height="11" rx="2.5" fill="#EBEDF0"/>
  <rect x="283" y="91" width="11" height="11" rx="2.5" fill="#EBEDF0"/>
  <rect x="283" y="104" width="11" height="11" rx="2.5" fill="#EBEDF0"/>
  <rect x="283" y="117" width="11" height="11" rx="2.5" fill="#EBEDF0"/>
  <rect x="283" y="130" width="11" height="11" rx="2.5" fill="#EBEDF0"/>
  <rect x="296" y="52" width="11" height="11" rx="2.5" fill="#EBEDF0"/>
  <rect x="296" y="65" width="11" height="11" rx="2.5" fill="#EBEDF0"/>
  <rect x="296" y="78" width="11" height="11" rx="2.5" fill="#EBEDF0"/>
  <rect x="296" y="91" width="11" height="11" rx="2.5" fill="#EBEDF0"/>
  <rect x="296" y="104" width="11" height="11" rx="2.5" fill="#EBEDF0"/>
  <rect x="296" y="117" width="11" height="11" rx="2.5" fill="#EBEDF0"/>
  <rect x="296" y="130" width="11" height="11" rx="2.5" fill="#EBEDF0"/>
  <rect x="309" y="52" width="11" height="11" rx="2.5" fill="#EBEDF0"/>
  <rect x="309" y="65" width="11" height="11" rx="2.5" fill="#EBEDF0"/>
  <rect x="309" y="78" width="11" height="11" rx="2.5" fill="#EBEDF0"/>
  <rect x="309" y="91" width="11" height="11" rx="2.5" fill="#EBEDF0"/>
  <rect x="309" y="104" width="11" height="11" rx="2.5" fill="#EBEDF0"/>
  <rect x="309" y="117" width="11" height="11" rx="2.5" fill="#EBEDF0"/>
  <rect x="309" y="130" width="11" height="11" rx="2.5" fill="#EBEDF0"/>
  <rect x="322" y="52" width="11" height="11" rx="2.5" fill="#EBEDF0"/>
  <rect x="322" y="65" width="11" height="11" rx="2.5" fill="#EBEDF0"/>
  <rect x="322" y="78" width="11" height="11" rx="2.5" fill="#EBEDF0"/>
  <rect x="322" y="91" width="11" height="11" rx="2.5" fill="#EBEDF0"/>
  <rect x="322" y="104" width="11" height="11" rx="2.5" fill="#EBEDF0"/>
  <rect x="322" y="117" width="11" height="11" rx="2.5" fill="#EBEDF0"/>
  <rect x="322" y="130" width="11" height="11" rx="2.5" fill="#EBEDF0"/>
  <rect x="335" y="52" width="11" height="11" rx="2.5" fill="#EBEDF0"/>
  <rect x="335" y="65" width="11" height="11" rx="2.5" fill="#EBEDF0"/>
  <rect x="335" y="78" width="11" height="11" rx="2.5" fill="#EBEDF0"/>
  <rect x="335" y="91" width="11" height="11" rx="2.5" fill="#EBEDF0"/>
  <rect x="335" y="104" width="11" height="11" rx="2.5" fill="#EBEDF0"/>
  <rect x="335" y="117" width="11" height="11" rx="2.5" fill="#EBEDF0"/>
  <rect x="335" y="130" width="11" height="11" rx="2.5" fill="#EBEDF0"/>
  <rect x="348" y="52" width="11" height="11" rx="2.5" fill="#EBEDF0"/>
  <rect x="348" y="65" width="11" height="11" rx="2.5" fill="#EBEDF0"/>
  <rect x="348" y="78" width="11" height="11" rx="2.5" fill="#EBEDF0"/>
  <rect x="348" y="91" width="11" height="11" rx="2.5" fill="#EBEDF0"/>
  <rect x="348" y="104" width="11" height="11" rx="2.5" fill="#EBEDF0"/>
  <rect x="348" y="117" width="11" height="11" rx="2.5" fill="#EBEDF0"/>
  <rect x="348" y="130" width="11" height="11" rx="2.5" fill="#EBEDF0"/>
  <rect x="361" y="52" width="11" height="11" rx="2.5" fill="#EBEDF0"/>
  <rect x="361" y="65" width="11" height="11" rx="2.5" fill="#EBEDF0"/>
  <rect x="361" y="78" width="11" height="11" rx="2.5" fill="#EBEDF0"/>
  <rect x="361" y="91" width="11" height="11" rx="2.5" fill="#EBEDF0"/>
  <rect x="361" y="104" width="11" height="11" rx="2.5" fill="#EBEDF0"/>
  <rect x="361" y="117" width="11" height="11" rx="2.5" fill="#EBEDF0"/>
  <rect x="361" y="130" width="11" height="11" rx="2.5" fill="#EBEDF0"/>
  <rect x="374" y="52" width="11" height="11" rx="2.5" fill="#EBEDF0"/>
  <rect x="374" y="65" width="11" height="11" rx="2.5" fill="#EBEDF0"/>
  <rect x="374" y="78" width="11" height="11" rx="2.5" fill="#EBEDF0"/>
  <rect x="374" y="91" width="11" height="11" rx="2.5" fill="#EBEDF0"/>
  <rect x="374" y="104" width="11" height="11" rx="2.5" fill="#EBEDF0"/>
  <rect x="374" y="117" width="11" height="11" rx="2.5" fill="#EBEDF0"/>
  <rect x="374" y="130" width="11" height="11" rx="2.5" fill="#EBEDF0"/>
  <rect x="387" y="52" width="11" height="11" rx="2.5" fill="#EBEDF0"/>
  <rect x="387" y="65" width="11" height="11" rx="2.5" fill="#EBEDF0"/>
  <rect x="387" y="78" width="11" height="11" rx="2.5" fill="#EBEDF0"/>
  <rect x="387" y="91" width="11" height="11" rx="2.5" fill="#EBEDF0"/>
  <rect x="387" y="104" width="11" height="11" rx="2.5" fill="#EBEDF0"/>
  <rect x="387" y="117" width="11" height="11" rx="2.5" fill="#EBEDF0"/>
  <rect x="387" y="130" width="11" height="11" rx="2.5" fill="#EBEDF0"/>
  <rect x="400" y="52" width="11" height="11" rx="2.5" fill="#EBEDF0"/>
  <rect x="400" y="65" width="11" height="11" rx="2.5" fill="#EBEDF0"/>
  <rect x="400" y="78" width="11" height="11" rx="2.5" fill="#EBEDF0"/>
  <rect x="400" y="91" width="11" height="11" rx="2.5" fill="#EBEDF0"/>
  <rect x="400" y="104" width="11" height="11" rx="2.5" fill="#EBEDF0"/>
  <rect x="400" y="117" width="11" height="11" rx="2.5" fill="#EBEDF0"/>
  <rect x="400" y="130" width="11" height="11" rx="2.5" fill="#EBEDF0"/>
  <rect x="413" y="52" width="11" height="11" rx="2.5" fill="#EBEDF0"/>
  <rect x="413" y="65" width="11" height="11" rx="2.5" fill="#EBEDF0"/>
  <rect x="413" y="78" width="11" height="11" rx="2.5" fill="#EBEDF0"/>
  <rect x="413" y="91" width="11" height="11" rx="2.5" fill="#EBEDF0"/>
  <rect x="413" y="104" width="11" height="11" rx="2.5" fill="#EBEDF0"/>
  <rect x="413" y="117" width="11" height="11" rx="2.5" fill="#EBEDF0"/>
  <rect x="413" y="130" width="11" height="11" rx="2.5" fill="#EBEDF0"/>
  <rect x="426" y="52" width="11" height="11" rx="2.5" fill="#EBEDF0"/>
  <rect x="426" y="65" width="11" height="11" rx="2.5" fill="#EBEDF0"/>
  <rect x="426" y="78" width="11" height="11" rx="2.5" fill="#EBEDF0"/>
  <rect x="426" y="91" width="11" height="11" rx="2.5" fill="#EBEDF0"/>
  <rect x="426" y="104" width="11" height="11" rx="2.5" fill="#EBEDF0"/>
  <rect x="426" y="117" width="11" height="11" rx="2.5" fill="#EBEDF0"/>
  <rect x="426" y="130" width="11" height="11" rx="2.5" fill="#EBEDF0"/>
  <rect x="439" y="52" width="11" height="11" rx="2.5" fill="#EBEDF0"/>
  <rect x="439" y="65" width="11" height="11" rx="2.5" fill="#EBEDF0"/>
  <rect x="439" y="78" width="11" height="11" rx="2.5" fill="#EBEDF0"/>
  <rect x="439" y="91" width="11" height="11" rx="2.5" fill="#EBEDF0"/>
  <rect x="439" y="104" width="11" height="11" rx="2.5" fill="#EBEDF0"/>
  <rect x="439" y="117" width="11" height="11" rx="2.5" fill="#EBEDF0"/>
  <rect x="439" y="130" width="11" height="11" rx="2.5" fill="#EBEDF0"/>
  <rect x="452" y="52" width="11" height="11" rx="2.5" fill="#EBEDF0"/>
  <rect x="452" y="65" width="11" height="11" rx="2.5" fill="#EBEDF0"/>
  <rect x="452" y="78" width="11" height="11" rx="2.5" fill="#EBEDF0"/>
  <rect x="452" y="91" width="11" height="11" rx="2.5" fill="#EBEDF0"/>
  <rect x="452" y="104" width="11" height="11" rx="2.5" fill="#EBEDF0"/>
  <rect x="452" y="117" width="11" height="11" rx="2.5" fill="#EBEDF0"/>
  <rect x="452" y="130" width="11" height="11" rx="2.5" fill="#EBEDF0"/>
  <rect x="465" y="52" width="11" height="11" rx="2.5" fill="#EBEDF0"/>
  <rect x="465" y="65" width="11" height="11" rx="2.5" fill="#EBEDF0"/>
  <rect class="g233" x="465" y="78" width="11" height="11" rx="2.5" fill="#92400E"/>
  <rect class="g234" x="465" y="91" width="11" height="11" rx="2.5" fill="#92400E"/>
  <rect class="g235" x="465" y="104" width="11" height="11" rx="2.5" fill="#92400E"/>
  <rect class="g236" x="465" y="117" width="11" height="11" rx="2.5" fill="#FEF3C7"/>
  <rect class="g237" x="465" y="130" width="11" height="11" rx="2.5" fill="#92400E"/>
  <rect class="g238" x="478" y="52" width="11" height="11" rx="2.5" fill="#92400E"/>
  <rect class="g239" x="478" y="65" width="11" height="11" rx="2.5" fill="#92400E"/>
  <rect class="g240" x="478" y="78" width="11" height="11" rx="2.5" fill="#F59E0B"/>
  <rect class="g241" x="478" y="91" width="11" height="11" rx="2.5" fill="#92400E"/>
  <rect x="478" y="104" width="11" height="11" rx="2.5" fill="#EBEDF0"/>
  <rect class="g243" x="478" y="117" width="11" height="11" rx="2.5" fill="#92400E"/>
  <rect class="g244" x="478" y="130" width="11" height="11" rx="2.5" fill="#FEF3C7"/>
  <rect class="g245" x="491" y="52" width="11" height="11" rx="2.5" fill="#92400E"/>
  <rect class="g246" x="491" y="65" width="11" height="11" rx="2.5" fill="#92400E"/>
  <rect class="g247" x="491" y="78" width="11" height="11" rx="2.5" fill="#92400E"/>
  <rect class="g248" x="491" y="91" width="11" height="11" rx="2.5" fill="#92400E"/>
  <rect x="491" y="104" width="11" height="11" rx="2.5" fill="#EBEDF0"/>
  <rect class="g250" x="491" y="117" width="11" height="11" rx="2.5" fill="#92400E"/>
  <rect class="g251" x="491" y="130" width="11" height="11" rx="2.5" fill="#92400E"/>
  <rect class="g252" x="504" y="52" width="11" height="11" rx="2.5" fill="#92400E"/>
  <rect class="g253" x="504" y="65" width="11" height="11" rx="2.5" fill="#92400E"/>
  <rect class="g254" x="504" y="78" width="11" height="11" rx="2.5" fill="#92400E"/>
  <rect class="g255" x="504" y="91" width="11" height="11" rx="2.5" fill="#FDE68A"/>
  <rect class="g256" x="504" y="104" width="11" height="11" rx="2.5" fill="#F59E0B"/>
  <rect x="504" y="117" width="11" height="11" rx="2.5" fill="#EBEDF0"/>
  <rect x="504" y="130" width="11" height="11" rx="2.5" fill="#EBEDF0"/>
  <rect x="517" y="52" width="11" height="11" rx="2.5" fill="#EBEDF0"/>
  <rect x="517" y="65" width="11" height="11" rx="2.5" fill="#EBEDF0"/>
  <rect class="g261" x="517" y="78" width="11" height="11" rx="2.5" fill="#FEF3C7"/>
  <rect class="g262" x="517" y="91" width="11" height="11" rx="2.5" fill="#92400E"/>
  <rect x="517" y="104" width="11" height="11" rx="2.5" fill="#EBEDF0"/>
  <rect x="517" y="117" width="11" height="11" rx="2.5" fill="#EBEDF0"/>
  <rect x="517" y="130" width="11" height="11" rx="2.5" fill="#EBEDF0"/>
  <rect x="530" y="52" width="11" height="11" rx="2.5" fill="#EBEDF0"/>
  <rect x="530" y="65" width="11" height="11" rx="2.5" fill="#EBEDF0"/>
  <rect x="530" y="78" width="11" height="11" rx="2.5" fill="#EBEDF0"/>
  <rect x="530" y="91" width="11" height="11" rx="2.5" fill="#EBEDF0"/>
  <rect x="530" y="104" width="11" height="11" rx="2.5" fill="#EBEDF0"/>
  <rect x="530" y="117" width="11" height="11" rx="2.5" fill="#EBEDF0"/>
  <rect x="530" y="130" width="11" height="11" rx="2.5" fill="#EBEDF0"/>
  <rect x="543" y="52" width="11" height="11" rx="2.5" fill="#EBEDF0"/>
  <rect x="543" y="65" width="11" height="11" rx="2.5" fill="#EBEDF0"/>
  <rect x="543" y="78" width="11" height="11" rx="2.5" fill="#EBEDF0"/>
  <rect x="543" y="91" width="11" height="11" rx="2.5" fill="#EBEDF0"/>
  <rect x="543" y="104" width="11" height="11" rx="2.5" fill="#EBEDF0"/>
  <rect x="543" y="117" width="11" height="11" rx="2.5" fill="#EBEDF0"/>
  <rect x="543" y="130" width="11" height="11" rx="2.5" fill="#EBEDF0"/>
  <rect x="556" y="52" width="11" height="11" rx="2.5" fill="#EBEDF0"/>
  <rect x="556" y="65" width="11" height="11" rx="2.5" fill="#EBEDF0"/>
  <rect x="556" y="78" width="11" height="11" rx="2.5" fill="#EBEDF0"/>
  <rect x="556" y="91" width="11" height="11" rx="2.5" fill="#EBEDF0"/>
  <rect x="556" y="104" width="11" height="11" rx="2.5" fill="#EBEDF0"/>
  <rect x="556" y="117" width="11" height="11" rx="2.5" fill="#EBEDF0"/>
  <rect x="556" y="130" width="11" height="11" rx="2.5" fill="#EBEDF0"/>
  <rect x="569" y="52" width="11" height="11" rx="2.5" fill="#EBEDF0"/>
  <rect x="569" y="65" width="11" height="11" rx="2.5" fill="#EBEDF0"/>
  <rect x="569" y="78" width="11" height="11" rx="2.5" fill="#EBEDF0"/>
  <rect x="569" y="91" width="11" height="11" rx="2.5" fill="#EBEDF0"/>
  <rect x="569" y="104" width="11" height="11" rx="2.5" fill="#EBEDF0"/>
  <rect x="569" y="117" width="11" height="11" rx="2.5" fill="#EBEDF0"/>
  <rect x="569" y="130" width="11" height="11" rx="2.5" fill="#EBEDF0"/>
  <rect x="582" y="52" width="11" height="11" rx="2.5" fill="#EBEDF0"/>
  <rect x="582" y="65" width="11" height="11" rx="2.5" fill="#EBEDF0"/>
  <rect x="582" y="78" width="11" height="11" rx="2.5" fill="#EBEDF0"/>
  <rect x="582" y="91" width="11" height="11" rx="2.5" fill="#EBEDF0"/>
  <rect x="582" y="104" width="11" height="11" rx="2.5" fill="#EBEDF0"/>
  <rect x="582" y="117" width="11" height="11" rx="2.5" fill="#EBEDF0"/>
  <rect x="582" y="130" width="11" height="11" rx="2.5" fill="#EBEDF0"/>
  <rect class="g301" x="595" y="52" width="11" height="11" rx="2.5" fill="#FEF3C7"/>
  <rect x="595" y="65" width="11" height="11" rx="2.5" fill="#EBEDF0"/>
  <rect x="595" y="78" width="11" height="11" rx="2.5" fill="#EBEDF0"/>
  <rect x="595" y="91" width="11" height="11" rx="2.5" fill="#EBEDF0"/>
  <rect x="595" y="104" width="11" height="11" rx="2.5" fill="#EBEDF0"/>
  <rect x="595" y="117" width="11" height="11" rx="2.5" fill="#EBEDF0"/>
  <rect x="595" y="130" width="11" height="11" rx="2.5" fill="#EBEDF0"/>
  <rect x="608" y="52" width="11" height="11" rx="2.5" fill="#EBEDF0"/>
  <rect x="608" y="65" width="11" height="11" rx="2.5" fill="#EBEDF0"/>
  <rect x="608" y="78" width="11" height="11" rx="2.5" fill="#EBEDF0"/>
  <rect x="608" y="91" width="11" height="11" rx="2.5" fill="#EBEDF0"/>
  <rect x="608" y="104" width="11" height="11" rx="2.5" fill="#EBEDF0"/>
  <rect x="608" y="117" width="11" height="11" rx="2.5" fill="#EBEDF0"/>
  <rect x="608" y="130" width="11" height="11" rx="2.5" fill="#EBEDF0"/>
  <rect x="621" y="52" width="11" height="11" rx="2.5" fill="#EBEDF0"/>
  <rect x="621" y="65" width="11" height="11" rx="2.5" fill="#EBEDF0"/>
  <rect x="621" y="78" width="11" height="11" rx="2.5" fill="#EBEDF0"/>
  <rect x="621" y="91" width="11" height="11" rx="2.5" fill="#EBEDF0"/>
  <rect x="621" y="104" width="11" height="11" rx="2.5" fill="#EBEDF0"/>
  <rect x="621" y="117" width="11" height="11" rx="2.5" fill="#EBEDF0"/>
  <rect x="621" y="130" width="11" height="11" rx="2.5" fill="#EBEDF0"/>
  <rect x="634" y="52" width="11" height="11" rx="2.5" fill="#EBEDF0"/>
  <rect x="634" y="65" width="11" height="11" rx="2.5" fill="#EBEDF0"/>
  <rect x="634" y="78" width="11" height="11" rx="2.5" fill="#EBEDF0"/>
  <rect x="634" y="91" width="11" height="11" rx="2.5" fill="#EBEDF0"/>
  <rect x="634" y="104" width="11" height="11" rx="2.5" fill="#EBEDF0"/>
  <rect x="634" y="117" width="11" height="11" rx="2.5" fill="#EBEDF0"/>
  <rect x="634" y="130" width="11" height="11" rx="2.5" fill="#EBEDF0"/>
  <rect x="647" y="52" width="11" height="11" rx="2.5" fill="#EBEDF0"/>
  <rect x="647" y="65" width="11" height="11" rx="2.5" fill="#EBEDF0"/>
  <rect x="647" y="78" width="11" height="11" rx="2.5" fill="#EBEDF0"/>
  <rect x="647" y="91" width="11" height="11" rx="2.5" fill="#EBEDF0"/>
  <rect x="647" y="104" width="11" height="11" rx="2.5" fill="#EBEDF0"/>
  <rect x="647" y="117" width="11" height="11" rx="2.5" fill="#EBEDF0"/>
  <rect x="647" y="130" width="11" height="11" rx="2.5" fill="#EBEDF0"/>
  <rect x="660" y="52" width="11" height="11" rx="2.5" fill="#EBEDF0"/>
  <rect x="660" y="65" width="11" height="11" rx="2.5" fill="#EBEDF0"/>
  <rect x="660" y="78" width="11" height="11" rx="2.5" fill="#EBEDF0"/>
  <rect x="660" y="91" width="11" height="11" rx="2.5" fill="#EBEDF0"/>
  <rect x="660" y="104" width="11" height="11" rx="2.5" fill="#EBEDF0"/>
  <rect x="660" y="117" width="11" height="11" rx="2.5" fill="#EBEDF0"/>
  <rect x="660" y="130" width="11" height="11" rx="2.5" fill="#EBEDF0"/>
  <rect x="673" y="52" width="11" height="11" rx="2.5" fill="#EBEDF0"/>
  <rect x="673" y="65" width="11" height="11" rx="2.5" fill="#EBEDF0"/>
  <rect x="673" y="78" width="11" height="11" rx="2.5" fill="#EBEDF0"/>
  <rect x="673" y="91" width="11" height="11" rx="2.5" fill="#EBEDF0"/>
  <rect x="673" y="104" width="11" height="11" rx="2.5" fill="#EBEDF0"/>
  <rect x="673" y="117" width="11" height="11" rx="2.5" fill="#EBEDF0"/>
  <rect x="673" y="130" width="11" height="11" rx="2.5" fill="#EBEDF0"/>
  <rect x="686" y="52" width="11" height="11" rx="2.5" fill="#EBEDF0"/>
  <rect x="686" y="65" width="11" height="11" rx="2.5" fill="#EBEDF0"/>
  <rect x="686" y="78" width="11" height="11" rx="2.5" fill="#EBEDF0"/>
  <rect x="686" y="91" width="11" height="11" rx="2.5" fill="#EBEDF0"/>
  <rect x="686" y="104" width="11" height="11" rx="2.5" fill="#EBEDF0"/>
  <rect x="686" y="117" width="11" height="11" rx="2.5" fill="#EBEDF0"/>
  <rect x="686" y="130" width="11" height="11" rx="2.5" fill="#EBEDF0"/>
  <rect class="g357" x="699" y="52" width="11" height="11" rx="2.5" fill="#F59E0B"/>
  <rect class="g358" x="699" y="65" width="11" height="11" rx="2.5" fill="#92400E"/>
  <rect class="g359" x="699" y="78" width="11" height="11" rx="2.5" fill="#FEF3C7"/>
  <rect x="699" y="91" width="11" height="11" rx="2.5" fill="#EBEDF0"/>
  <rect x="699" y="104" width="11" height="11" rx="2.5" fill="#EBEDF0"/>
  <rect x="699" y="117" width="11" height="11" rx="2.5" fill="#EBEDF0"/>
  <rect x="699" y="130" width="11" height="11" rx="2.5" fill="#EBEDF0"/>
  <rect class="g364" x="712" y="52" width="11" height="11" rx="2.5" fill="#FDE68A"/>
  <rect class="g365" x="712" y="65" width="11" height="11" rx="2.5" fill="#FEF3C7"/>

  <!-- The sweeping beam, clipped to the grid so it never washes over the
       card chrome. -->
  <g class="motion" clip-path="url(#gridclip)">
    <rect class="beam" x="0" y="52" width="90" height="91"
          fill="url(#beamg)" filter="url(#beamblur)"/>
  </g>

  <!-- Legend -->
  <text x="36" y="161" fill="#9CA3AF" font-family="'Segoe UI',sans-serif" font-size="9">最近一年</text>
  <text x="628" y="161" text-anchor="end" fill="#6B7280" font-family="'Segoe UI',sans-serif" font-size="9">Less</text>
  <rect x="632" y="152" width="11" height="11" rx="2.5" fill="#EBEDF0"/>
  <rect x="646" y="152" width="11" height="11" rx="2.5" fill="#FEF3C7"/>
  <rect x="660" y="152" width="11" height="11" rx="2.5" fill="#FDE68A"/>
  <rect x="674" y="152" width="11" height="11" rx="2.5" fill="#F59E0B"/>
  <rect x="688" y="152" width="11" height="11" rx="2.5" fill="#92400E"/>
  <text x="732" y="161" text-anchor="end" fill="#6B7280" font-family="'Segoe UI',sans-serif" font-size="9">More</text>
</svg>
