<svg xmlns="http://www.w3.org/2000/svg" width="500" height="268" viewBox="0 0 500 268" role="img" aria-label="技术栈：语言、后端、前端、AI / 数据、工程">
  <defs>
    <linearGradient id="sbg" x1="0" y1="0" x2="1" y2="1">
      <stop offset="0" stop-color="#0D1117"/>
      <stop offset="1" stop-color="#161B22"/>
    </linearGradient>
    <linearGradient id="sborder" x1="0" y1="0" x2="1" y2="0">
      <stop offset="0" stop-color="#92400E"/>
      <stop offset="0.5" stop-color="#D97706"/>
      <stop offset="1" stop-color="#F59E0B"/>
    </linearGradient>
    <filter id="sshadow" x="-5%" y="-10%" width="110%" height="125%">
      <feDropShadow dx="0" dy="3" stdDeviation="7" flood-color="#D97706" flood-opacity="0.25"/>
    </filter>
  </defs>

  <rect x="1" y="1" width="498" height="266" rx="14" fill="url(#sbg)" filter="url(#sshadow)"/>
  <rect x="1" y="1" width="498" height="266" rx="14" fill="none" stroke="url(#sborder)" stroke-width="1.5"/>


  <!-- 语言 -->
  <text x="28" y="22" fill="#8B949E" font-family="'Segoe UI',-apple-system,sans-serif" font-size="11" letter-spacing="1">语言</text>
  <g font-family="'Segoe UI',-apple-system,sans-serif" font-size="12">
    <rect x="87.5" y="34" width="75" height="24" rx="12" fill="#1C2128" stroke="#30363D"/>
    <circle cx="101.5" cy="46" r="3.5" fill="#F59E0B"/>
    <text x="111.5" y="50" fill="#FDE68A">Python</text>
  </g>
  <g font-family="'Segoe UI',-apple-system,sans-serif" font-size="12">
    <rect x="172.5" y="34" width="62" height="24" rx="12" fill="#1C2128" stroke="#30363D"/>
    <circle cx="186.5" cy="46" r="3.5" fill="#F59E0B"/>
    <text x="196.5" y="50" fill="#FDE68A">Java</text>
  </g>
  <g font-family="'Segoe UI',-apple-system,sans-serif" font-size="12">
    <rect x="244.5" y="34" width="103" height="24" rx="12" fill="#1C2128" stroke="#30363D"/>
    <circle cx="258.5" cy="46" r="3.5" fill="#F59E0B"/>
    <text x="268.5" y="50" fill="#FDE68A">TypeScript</text>
  </g>
  <g font-family="'Segoe UI',-apple-system,sans-serif" font-size="12">
    <rect x="357.5" y="34" width="55" height="24" rx="12" fill="#1C2128" stroke="#30363D"/>
    <circle cx="371.5" cy="46" r="3.5" fill="#F59E0B"/>
    <text x="381.5" y="50" fill="#FDE68A">SQL</text>
  </g>
  <!-- 后端 -->
  <text x="28" y="68" fill="#8B949E" font-family="'Segoe UI',-apple-system,sans-serif" font-size="11" letter-spacing="1">后端</text>
  <g font-family="'Segoe UI',-apple-system,sans-serif" font-size="12">
    <rect x="28.5" y="80" width="110" height="24" rx="12" fill="#1C2128" stroke="#30363D"/>
    <circle cx="42.5" cy="92" r="3.5" fill="#F59E0B"/>
    <text x="52.5" y="96" fill="#FDE68A">Spring Boot</text>
  </g>
  <g font-family="'Segoe UI',-apple-system,sans-serif" font-size="12">
    <rect x="148.5" y="80" width="68" height="24" rx="12" fill="#1C2128" stroke="#30363D"/>
    <circle cx="162.5" cy="92" r="3.5" fill="#F59E0B"/>
    <text x="172.5" y="96" fill="#FDE68A">MySQL</text>
  </g>
  <g font-family="'Segoe UI',-apple-system,sans-serif" font-size="12">
    <rect x="226.5" y="80" width="68" height="24" rx="12" fill="#1C2128" stroke="#30363D"/>
    <circle cx="240.5" cy="92" r="3.5" fill="#F59E0B"/>
    <text x="250.5" y="96" fill="#FDE68A">Redis</text>
  </g>
  <g font-family="'Segoe UI',-apple-system,sans-serif" font-size="12">
    <rect x="304.5" y="80" width="68" height="24" rx="12" fill="#1C2128" stroke="#30363D"/>
    <circle cx="318.5" cy="92" r="3.5" fill="#F59E0B"/>
    <text x="328.5" y="96" fill="#FDE68A">Kafka</text>
  </g>
  <g font-family="'Segoe UI',-apple-system,sans-serif" font-size="12">
    <rect x="382.5" y="80" width="89" height="24" rx="12" fill="#1C2128" stroke="#30363D"/>
    <circle cx="396.5" cy="92" r="3.5" fill="#F59E0B"/>
    <text x="406.5" y="96" fill="#FDE68A">RabbitMQ</text>
  </g>
  <!-- 前端 -->
  <text x="28" y="114" fill="#8B949E" font-family="'Segoe UI',-apple-system,sans-serif" font-size="11" letter-spacing="1">前端</text>
  <g font-family="'Segoe UI',-apple-system,sans-serif" font-size="12">
    <rect x="147.5" y="126" width="55" height="24" rx="12" fill="#1C2128" stroke="#30363D"/>
    <circle cx="161.5" cy="138" r="3.5" fill="#F59E0B"/>
    <text x="171.5" y="142" fill="#FDE68A">Vue</text>
  </g>
  <g font-family="'Segoe UI',-apple-system,sans-serif" font-size="12">
    <rect x="212.5" y="126" width="68" height="24" rx="12" fill="#1C2128" stroke="#30363D"/>
    <circle cx="226.5" cy="138" r="3.5" fill="#F59E0B"/>
    <text x="236.5" y="142" fill="#FDE68A">React</text>
  </g>
  <g font-family="'Segoe UI',-apple-system,sans-serif" font-size="12">
    <rect x="290.5" y="126" width="62" height="24" rx="12" fill="#1C2128" stroke="#30363D"/>
    <circle cx="304.5" cy="138" r="3.5" fill="#F59E0B"/>
    <text x="314.5" y="142" fill="#FDE68A">Vite</text>
  </g>
  <!-- AI / 数据 -->
  <text x="28" y="160" fill="#8B949E" font-family="'Segoe UI',-apple-system,sans-serif" font-size="11" letter-spacing="1">AI / 数据</text>
  <g font-family="'Segoe UI',-apple-system,sans-serif" font-size="12">
    <rect x="74.0" y="172" width="55" height="24" rx="12" fill="#1C2128" stroke="#30363D"/>
    <circle cx="88.0" cy="184" r="3.5" fill="#F59E0B"/>
    <text x="98.0" y="188" fill="#FDE68A">RAG</text>
  </g>
  <g font-family="'Segoe UI',-apple-system,sans-serif" font-size="12">
    <rect x="139.0" y="172" width="96" height="24" rx="12" fill="#1C2128" stroke="#30363D"/>
    <circle cx="153.0" cy="184" r="3.5" fill="#F59E0B"/>
    <text x="163.0" y="188" fill="#FDE68A">LangChain</text>
  </g>
  <g font-family="'Segoe UI',-apple-system,sans-serif" font-size="12">
    <rect x="245.0" y="172" width="96" height="24" rx="12" fill="#1C2128" stroke="#30363D"/>
    <circle cx="259.0" cy="184" r="3.5" fill="#F59E0B"/>
    <text x="269.0" y="188" fill="#FDE68A">Embedding</text>
  </g>
  <g font-family="'Segoe UI',-apple-system,sans-serif" font-size="12">
    <rect x="351.0" y="172" width="75" height="24" rx="12" fill="#1C2128" stroke="#30363D"/>
    <circle cx="365.0" cy="184" r="3.5" fill="#F59E0B"/>
    <text x="375.0" y="188" fill="#FDE68A">Milvus</text>
  </g>
  <!-- 工程 -->
  <text x="28" y="206" fill="#8B949E" font-family="'Segoe UI',-apple-system,sans-serif" font-size="11" letter-spacing="1">工程</text>
  <g font-family="'Segoe UI',-apple-system,sans-serif" font-size="12">
    <rect x="102.0" y="218" width="75" height="24" rx="12" fill="#1C2128" stroke="#30363D"/>
    <circle cx="116.0" cy="230" r="3.5" fill="#F59E0B"/>
    <text x="126.0" y="234" fill="#FDE68A">Docker</text>
  </g>
  <g font-family="'Segoe UI',-apple-system,sans-serif" font-size="12">
    <rect x="187.0" y="218" width="68" height="24" rx="12" fill="#1C2128" stroke="#30363D"/>
    <circle cx="201.0" cy="230" r="3.5" fill="#F59E0B"/>
    <text x="211.0" y="234" fill="#FDE68A">Linux</text>
  </g>
  <g font-family="'Segoe UI',-apple-system,sans-serif" font-size="12">
    <rect x="265.0" y="218" width="55" height="24" rx="12" fill="#1C2128" stroke="#30363D"/>
    <circle cx="279.0" cy="230" r="3.5" fill="#F59E0B"/>
    <text x="289.0" y="234" fill="#FDE68A">Git</text>
  </g>
  <g font-family="'Segoe UI',-apple-system,sans-serif" font-size="12">
    <rect x="330.0" y="218" width="68" height="24" rx="12" fill="#1C2128" stroke="#30363D"/>
    <circle cx="344.0" cy="230" r="3.5" fill="#F59E0B"/>
    <text x="354.0" y="234" fill="#FDE68A">CI/CD</text>
  </g>
</svg>
