<svg xmlns="http://www.w3.org/2000/svg" width="520" height="280" viewBox="0 0 520 280">
  <defs>
    <linearGradient id="bg" x1="0" y1="0" x2="0" y2="1">
      <stop offset="0%" stop-color="#FAFBFC"/>
      <stop offset="100%" stop-color="#F0F3F6"/>
    </linearGradient>
    <linearGradient id="accent" x1="0" y1="0" x2="1" y2="1">
      <stop offset="0%" stop-color="#0969DA"/>
      <stop offset="100%" stop-color="#8250DF"/>
    </linearGradient>
    <filter id="shadow" x="-4%" y="-4%" width="108%" height="116%">
      <feDropShadow dx="0" dy="1" stdDeviation="2" flood-color="#1B1F240D"/>
    </filter>
    <clipPath id="card-clip">
      <rect width="520" height="280" rx="12"/>
    </clipPath>
  </defs>

  <!-- Card background -->
  <rect width="520" height="280" rx="12" fill="url(#bg)" filter="url(#shadow)"/>
  <rect x="0.5" y="0.5" width="519" height="279" rx="12" fill="none" stroke="#D8DEE4" stroke-opacity="0.6"/>

  <!-- Top accent bar -->
  <rect width="520" height="3" fill="url(#accent)" clip-path="url(#card-clip)"/>

  <!-- Header -->
  <g transform="translate(24, 28)">
    <rect width="32" height="32" rx="8" fill="#F6F8FA" stroke="#D0D7DE"/>
    <path transform="translate(6,5)" d="M10 0C4.48 0 0 4.48 0 10c0 4.42 2.87 8.17 6.84 9.49.5.09.66-.22.66-.48v-1.7C4.58 17.91 4.02 16.14 4.02 16.14c-.46-1.15-1.11-1.46-1.11-1.46-.91-.62.07-.61.07-.61 1 .07 1.53 1.03 1.53 1.03.89 1.52 2.34 1.08 2.91.83.09-.65.35-1.09.63-1.34-2.22-.25-4.56-1.11-4.56-4.95 0-1.09.39-1.98 1.03-2.68-.1-.25-.45-1.27.1-2.64 0 0 .84-.27 2.75 1.02A9.56 9.56 0 0110 5.8c.85.004 1.71.12 2.51.34 1.91-1.29 2.75-1.02 2.75-1.02.55 1.37.2 2.39.1 2.64.64.7 1.03 1.59 1.03 2.68 0 3.85-2.34 4.7-4.57 4.95.36.31.68.92.68 1.85v2.74c0 .27.16.58.67.48A10.01 10.01 0 0020 10c0-5.52-4.48-10-10-10z" fill="#656D76"/>
    <text x="42" y="16" fill="#1F2328" font-family="'SF Pro Display',-apple-system,BlinkMacSystemFont,'Segoe UI',Helvetica,Arial,sans-serif" font-size="15" font-weight="600" letter-spacing="-0.3">GitHub Stats</text>
    <text x="42" y="30" fill="#656D76" font-family="'SF Pro Text',-apple-system,BlinkMacSystemFont,'Segoe UI',Helvetica,Arial,sans-serif" font-size="11" letter-spacing="0.2">Contribution Overview</text>
  </g>

  <!-- Divider -->
  <line x1="24" y1="72" x2="496" y2="72" stroke="#D8DEE4" stroke-opacity="0.5"/>

  <!-- Stat items - Left column -->
  <g transform="translate(24, 92)">
    <circle cx="8" cy="14" r="8" fill="#DDF4FF"/>
    <path d="M8 7l2.1 4.3 4.7.7-3.4 3.3.8 4.7L8 17.8 3.8 20l.8-4.7L1.2 12l4.7-.7z" fill="#0969DA" transform="translate(-2,-2) scale(0.6)"/>
    <text x="24" y="12" fill="#656D76" font-family="'SF Pro Text',-apple-system,BlinkMacSystemFont,'Segoe UI',Helvetica,Arial,sans-serif" font-size="11" letter-spacing="0.3">STARS</text>
    <text x="24" y="32" fill="#1F2328" font-family="'SF Pro Display',-apple-system,BlinkMacSystemFont,'Segoe UI',Helvetica,Arial,sans-serif" font-size="22" font-weight="700" letter-spacing="-0.5">STARS_PLACEHOLDER</text>
  </g>

  <g transform="translate(24, 142)">
    <circle cx="8" cy="14" r="8" fill="#DAFBE1"/>
    <path d="M8 2a8 8 0 110 16A8 8 0 018 2zm0 1.5a6.5 6.5 0 100 13 6.5 6.5 0 000-13zM8 4a.75.75 0 01.75.75v3.5h3.5a.75.75 0 010 1.5h-3.5v3.5a.75.75 0 01-1.5 0v-3.5h-3.5a.75.75 0 010-1.5h3.5v-3.5A.75.75 0 018 4z" fill="#1A7F37" transform="translate(-2,-2) scale(0.6)"/>
    <text x="24" y="12" fill="#656D76" font-family="'SF Pro Text',-apple-system,BlinkMacSystemFont,'Segoe UI',Helvetica,Arial,sans-serif" font-size="11" letter-spacing="0.3">COMMITS</text>
    <text x="24" y="32" fill="#1F2328" font-family="'SF Pro Display',-apple-system,BlinkMacSystemFont,'Segoe UI',Helvetica,Arial,sans-serif" font-size="22" font-weight="700" letter-spacing="-0.5">COMMITS_PLACEHOLDER</text>
  </g>

  <g transform="translate(24, 192)">
    <circle cx="8" cy="14" r="8" fill="#FBEFFF"/>
    <path d="M8 2a8 8 0 110 16A8 8 0 018 2zm3.28 4.78a.75.75 0 00-1.06-1.06L8 7.94 5.78 5.72a.75.75 0 00-1.06 1.06L6.94 9l-2.22 2.22a.75.75 0 101.06 1.06L8 10.06l2.22 2.22a.75.75 0 101.06-1.06L9.06 9l2.22-2.22z" fill="#8250DF" transform="translate(-2,-2) scale(0.6)"/>
    <text x="24" y="12" fill="#656D76" font-family="'SF Pro Text',-apple-system,BlinkMacSystemFont,'Segoe UI',Helvetica,Arial,sans-serif" font-size="11" letter-spacing="0.3">PULL REQUESTS</text>
    <text x="24" y="32" fill="#1F2328" font-family="'SF Pro Display',-apple-system,BlinkMacSystemFont,'Segoe UI',Helvetica,Arial,sans-serif" font-size="22" font-weight="700" letter-spacing="-0.5">PRS_PLACEHOLDER</text>
  </g>

  <!-- Stat items - Right column -->
  <g transform="translate(280, 92)">
    <circle cx="8" cy="14" r="8" fill="#FFF8C5"/>
    <path d="M8 2a8 8 0 110 16A8 8 0 018 2zm0 3a.75.75 0 01.75.75v4.5a.75.75 0 01-1.5 0v-4.5A.75.75 0 018 5zm0 8a1 1 0 100 2 1 1 0 000-2z" fill="#BF8700" transform="translate(-2,-2) scale(0.6)"/>
    <text x="24" y="12" fill="#656D76" font-family="'SF Pro Text',-apple-system,BlinkMacSystemFont,'Segoe UI',Helvetica,Arial,sans-serif" font-size="11" letter-spacing="0.3">ISSUES</text>
    <text x="24" y="32" fill="#1F2328" font-family="'SF Pro Display',-apple-system,BlinkMacSystemFont,'Segoe UI',Helvetica,Arial,sans-serif" font-size="22" font-weight="700" letter-spacing="-0.5">ISSUES_PLACEHOLDER</text>
  </g>

  <g transform="translate(280, 142)">
    <circle cx="8" cy="14" r="8" fill="#F6F8FA"/>
    <path d="M2 2.5A2.5 2.5 0 014.5 0h8.75a.75.75 0 01.75.75v12.5a.75.75 0 01-.75.75h-2.5a.75.75 0 010-1.5h1.75v-2h-8a1 1 0 00-.714 1.7.75.75 0 01-1.072 1.05A2.495 2.495 0 012 11.5v-9zm10.5-1h-8a1 1 0 00-1 1v6.708A2.486 2.486 0 014.5 9h8V1.5z" fill="#656D76" transform="translate(-1,-1) scale(0.55)"/>
    <text x="24" y="12" fill="#656D76" font-family="'SF Pro Text',-apple-system,BlinkMacSystemFont,'Segoe UI',Helvetica,Arial,sans-serif" font-size="11" letter-spacing="0.3">REPOSITORIES</text>
    <text x="24" y="32" fill="#1F2328" font-family="'SF Pro Display',-apple-system,BlinkMacSystemFont,'Segoe UI',Helvetica,Arial,sans-serif" font-size="22" font-weight="700" letter-spacing="-0.5">REPOS_PLACEHOLDER</text>
  </g>

  <g transform="translate(280, 192)">
    <circle cx="8" cy="14" r="8" fill="#FFF1E5"/>
    <path d="M8 3a5 5 0 100 10A5 5 0 008 3zm0 1.5a3.5 3.5 0 110 7 3.5 3.5 0 010-7zM8 6a2 2 0 100 4 2 2 0 000-4z" fill="#BC4C00" transform="translate(-2,-2) scale(0.6)"/>
    <text x="24" y="12" fill="#656D76" font-family="'SF Pro Text',-apple-system,BlinkMacSystemFont,'Segoe UI',Helvetica,Arial,sans-serif" font-size="11" letter-spacing="0.3">PROFILE VIEWS</text>
    <text x="24" y="32" fill="#1F2328" font-family="'SF Pro Display',-apple-system,BlinkMacSystemFont,'Segoe UI',Helvetica,Arial,sans-serif" font-size="22" font-weight="700" letter-spacing="-0.5">VIEWS_PLACEHOLDER</text>
  </g>

  <!-- Footer -->
  <line x1="24" y1="252" x2="496" y2="252" stroke="#D8DEE4" stroke-opacity="0.5"/>
  <g transform="translate(260, 268)">
    <circle cx="-52" cy="-3" r="3" fill="#2DA44E"/>
    <text x="-44" y="0" fill="#8B949E" font-family="'SF Pro Text',-apple-system,BlinkMacSystemFont,'Segoe UI',Helvetica,Arial,sans-serif" font-size="10" letter-spacing="0.2">Updated daily via GitHub Actions</text>
  </g>
</svg>
