<svg xmlns="http://www.w3.org/2000/svg" width="520" height="180" viewBox="0 0 520 180">
  <defs>
    <linearGradient id="bg" x1="0" y1="0" x2="0" y2="1">
      <stop offset="0%" stop-color="#FAFBFC"/>
      <stop offset="100%" stop-color="#F0F3F6"/>
    </linearGradient>
    <linearGradient id="accent" x1="0" y1="0" x2="1" y2="1">
      <stop offset="0%" stop-color="#0969DA"/>
      <stop offset="100%" stop-color="#8250DF"/>
    </linearGradient>
    <filter id="shadow" x="-4%" y="-4%" width="108%" height="116%">
      <feDropShadow dx="0" dy="1" stdDeviation="2" flood-color="#1B1F240D"/>
    </filter>
    <clipPath id="card-clip">
      <rect width="520" height="180" rx="12"/>
    </clipPath>
  </defs>
  <rect width="520" height="180" rx="12" fill="url(#bg)" filter="url(#shadow)"/>
  <rect x="0.5" y="0.5" width="519" height="179" rx="12" fill="none" stroke="#D8DEE4" stroke-opacity="0.6"/>
  <rect width="520" height="3" fill="url(#accent)" clip-path="url(#card-clip)"/>
  <g transform="translate(24, 22)">
    <rect width="28" height="28" rx="7" fill="#F6F8FA" stroke="#D0D7DE"/>
    <path transform="translate(5,4)" d="M9 0C4.03 0 0 4.03 0 9c0 3.98 2.58 7.35 6.16 8.54.45.08.59-.2.59-.43v-1.53C4.12 16.11 3.63 14.53 3.63 14.53c-.41-1.04-1-1.31-1-1.31-.82-.56.06-.55.06-.55.9.06 1.38.93 1.38.93.8 1.37 2.11.97 2.62.74.08-.58.31-.98.57-1.2-2-.23-4.1-1-4.1-4.45 0-.98.35-1.78.93-2.41-.09-.23-.4-1.14.09-2.38 0 0 .76-.24 2.49.93A8.72 8.72 0 019 5.21c.82 0 1.64.11 2.41.32 1.73-1.17 2.49-.93 2.49-.93.49 1.24.18 2.15.09 2.38.58.63.93 1.43.93 2.41 0 3.46-2.1 4.22-4.11 4.44.32.28.59.83.59 1.67v2.47c0 .24.14.52.6.43A9.01 9.01 0 0018 9c0-4.97-4.03-9-9-9z" fill="#656D76"/>
    <text x="38" y="13" fill="#1F2328" font-family="'SF Pro Display',-apple-system,BlinkMacSystemFont,'Segoe UI',Helvetica,Arial,sans-serif" font-size="14" font-weight="600" letter-spacing="-0.3">GitHub Stats</text>
    <text x="38" y="25" fill="#656D76" font-family="'SF Pro Text',-apple-system,BlinkMacSystemFont,'Segoe UI',Helvetica,Arial,sans-serif" font-size="10" letter-spacing="0.2">Contribution Overview</text>
  </g>
  <line x1="24" y1="60" x2="496" y2="60" stroke="#D8DEE4" stroke-opacity="0.5"/>
  <g transform="translate(40, 80)">
    <circle cx="10" cy="10" r="10" fill="#DDF4FF"/>
    <text x="10" y="14" text-anchor="middle" fill="#0969DA" font-size="12">&#9733;</text>
    <text x="28" y="8" fill="#656D76" font-family="'SF Pro Text',-apple-system,BlinkMacSystemFont,'Segoe UI',Helvetica,Arial,sans-serif" font-size="10" letter-spacing="0.3">STARS</text>
    <text x="28" y="26" fill="#1F2328" font-family="'SF Pro Display',-apple-system,BlinkMacSystemFont,'Segoe UI',Helvetica,Arial,sans-serif" font-size="22" font-weight="700" letter-spacing="-0.5">0</text>
  </g>
  <g transform="translate(210, 80)">
    <circle cx="10" cy="10" r="10" fill="#DAFBE1"/>
    <text x="10" y="14" text-anchor="middle" fill="#1A7F37" font-size="12">&#10003;</text>
    <text x="28" y="8" fill="#656D76" font-family="'SF Pro Text',-apple-system,BlinkMacSystemFont,'Segoe UI',Helvetica,Arial,sans-serif" font-size="10" letter-spacing="0.3">COMMITS</text>
    <text x="28" y="26" fill="#1F2328" font-family="'SF Pro Display',-apple-system,BlinkMacSystemFont,'Segoe UI',Helvetica,Arial,sans-serif" font-size="22" font-weight="700" letter-spacing="-0.5">0</text>
  </g>
  <g transform="translate(380, 80)">
    <circle cx="10" cy="10" r="10" fill="#FFF1E5"/>
    <text x="10" y="14" text-anchor="middle" fill="#BC4C00" font-size="11">&#9679;</text>
    <text x="28" y="8" fill="#656D76" font-family="'SF Pro Text',-apple-system,BlinkMacSystemFont,'Segoe UI',Helvetica,Arial,sans-serif" font-size="10" letter-spacing="0.3">VIEWS</text>
    <text x="28" y="26" fill="#1F2328" font-family="'SF Pro Display',-apple-system,BlinkMacSystemFont,'Segoe UI',Helvetica,Arial,sans-serif" font-size="22" font-weight="700" letter-spacing="-0.5">23</text>
  </g>
  <line x1="24" y1="150" x2="496" y2="150" stroke="#D8DEE4" stroke-opacity="0.5"/>
  <g transform="translate(260, 166)">
    <circle cx="-52" cy="-3" r="3" fill="#2DA44E"/>
    <text x="-44" y="0" fill="#8B949E" font-family="'SF Pro Text',-apple-system,BlinkMacSystemFont,'Segoe UI',Helvetica,Arial,sans-serif" font-size="10" letter-spacing="0.2">Updated daily via GitHub Actions</text>
  </g>
</svg>
